<?xml version="1.0" encoding="UTF-8" standalone="no"?>
<!DOCTYPE svg PUBLIC "-//W3C//DTD SVG 1.1//EN"
 "http://www.w3.org/Graphics/SVG/1.1/DTD/svg11.dtd">
<!-- Generated by graphviz version 2.36.0 (20140111.2315)
 -->
<!-- Title: build_automation_language Pages: 1 -->
<svg width="792pt" height="218pt"
 viewBox="0.00 0.00 792.00 217.90" xmlns="http://www.w3.org/2000/svg" xmlns:xlink="http://www.w3.org/1999/xlink">
<g id="graph0" class="graph" transform="scale(0.838095 0.838095) rotate(0) translate(4 256)">
<title>build_automation_language</title>
<polygon fill="white" stroke="none" points="-4,4 -4,-256 941,-256 941,4 -4,4"/>
<!-- bal -->
<g id="node1" class="node"><title>bal</title>
<ellipse fill="#b2dfee" stroke="#b2dfee" cx="289" cy="-234" rx="112.16" ry="18"/>
<text text-anchor="middle" x="289" y="-230.3" font-family="Times,serif" font-size="14.00">Build Automation Lanugage</text>
</g>
<!-- ph -->
<g id="node2" class="node"><title>ph</title>
<g id="a_node2"><a xlink:href="../design_languages/build_automation_language.html#path-handling" xlink:title="Path Handling">
<ellipse fill="#b2dfee" stroke="#b2dfee" cx="61" cy="-162" rx="61.6163" ry="18"/>
<text text-anchor="middle" x="61" y="-158.3" font-family="Times,serif" font-size="14.00">Path Handling</text>
</a>
</g>
</g>
<!-- bal&#45;&gt;ph -->
<g id="edge1" class="edge"><title>bal&#45;&gt;ph</title>
<path fill="none" stroke="black" d="M239.527,-217.811C201.776,-206.221 149.949,-190.309 111.859,-178.615"/>
<polygon fill="black" stroke="black" points="112.583,-175.176 101.996,-175.587 110.529,-181.867 112.583,-175.176"/>
</g>
<!-- cfg -->
<g id="node3" class="node"><title>cfg</title>
<g id="a_node3"><a xlink:href="../design_languages/build_automation_language.html#configuration" xlink:title="Configuration">
<ellipse fill="#b2dfee" stroke="#b2dfee" cx="201" cy="-162" rx="59.1941" ry="18"/>
<text text-anchor="middle" x="201" y="-158.3" font-family="Times,serif" font-size="14.00">Configuration</text>
</a>
</g>
</g>
<!-- bal&#45;&gt;cfg -->
<g id="edge2" class="edge"><title>bal&#45;&gt;cfg</title>
<path fill="none" stroke="black" d="M267.698,-216.055C256.098,-206.828 241.599,-195.295 229.086,-185.341"/>
<polygon fill="black" stroke="black" points="231.204,-182.554 221.199,-179.068 226.847,-188.032 231.204,-182.554"/>
</g>
<!-- nlp -->
<g id="node4" class="node"><title>nlp</title>
<ellipse fill="#b2dfee" stroke="#b2dfee" cx="431" cy="-162" rx="114.085" ry="18"/>
<text text-anchor="middle" x="431" y="-158.3" font-family="Times,serif" font-size="14.00">Natural Language Processing</text>
</g>
<!-- bal&#45;&gt;nlp -->
<g id="edge3" class="edge"><title>bal&#45;&gt;nlp</title>
<path fill="none" stroke="black" d="M321.935,-216.765C341.775,-206.984 367.246,-194.428 388.583,-183.91"/>
<polygon fill="black" stroke="black" points="390.33,-186.951 397.752,-179.39 387.235,-180.672 390.33,-186.951"/>
</g>
<!-- log -->
<g id="node5" class="node"><title>log</title>
<ellipse fill="#b2dfee" stroke="#b2dfee" cx="715" cy="-162" rx="39.9464" ry="18"/>
<text text-anchor="middle" x="715" y="-158.3" font-family="Times,serif" font-size="14.00">Logging</text>
</g>
<!-- bal&#45;&gt;log -->
<g id="edge4" class="edge"><title>bal&#45;&gt;log</title>
<path fill="none" stroke="black" d="M364.669,-220.566C452.405,-206.149 594.333,-182.828 667.706,-170.771"/>
<polygon fill="black" stroke="black" points="668.719,-174.152 678.019,-169.077 667.584,-167.244 668.719,-174.152"/>
</g>
<!-- fh -->
<g id="node6" class="node"><title>fh</title>
<g id="a_node6"><a xlink:href="../design_languages/build_automation_language.html#file-handling" xlink:title="File Handling">
<ellipse fill="#b2dfee" stroke="#b2dfee" cx="77" cy="-90" rx="59.1941" ry="18"/>
<text text-anchor="middle" x="77" y="-86.3" font-family="Times,serif" font-size="14.00">File Handling</text>
</a>
</g>
</g>
<!-- bal&#45;&gt;fh -->
<g id="edge5" class="edge"><title>bal&#45;&gt;fh</title>
<path fill="none" stroke="black" d="M290.037,-215.863C290.265,-195.957 287.463,-163.376 269,-144 259.448,-133.975 186.683,-115.746 133.549,-103.504"/>
<polygon fill="black" stroke="black" points="134.071,-100.033 123.542,-101.216 132.51,-106.857 134.071,-100.033"/>
</g>
<!-- ph&#45;&gt;fh -->
<g id="edge6" class="edge"><title>ph&#45;&gt;fh</title>
<path fill="none" stroke="black" d="M64.9551,-143.697C66.7182,-135.983 68.8372,-126.712 70.8029,-118.112"/>
<polygon fill="black" stroke="black" points="74.2741,-118.633 73.0904,-108.104 67.4501,-117.073 74.2741,-118.633"/>
</g>
<!-- kwdp -->
<g id="node7" class="node"><title>kwdp</title>
<ellipse fill="#b2dfee" stroke="#b2dfee" cx="247" cy="-90" rx="83.2649" ry="18"/>
<text text-anchor="middle" x="247" y="-86.3" font-family="Times,serif" font-size="14.00">Keyword Processing</text>
</g>
<!-- nlp&#45;&gt;kwdp -->
<g id="edge7" class="edge"><title>nlp&#45;&gt;kwdp</title>
<path fill="none" stroke="black" d="M389.248,-145.116C361.526,-134.57 325.025,-120.683 295.939,-109.618"/>
<polygon fill="black" stroke="black" points="296.974,-106.267 286.383,-105.983 294.485,-112.81 296.974,-106.267"/>
</g>
<!-- tp -->
<g id="node8" class="node"><title>tp</title>
<ellipse fill="#b2dfee" stroke="#b2dfee" cx="422" cy="-90" rx="73.1654" ry="18"/>
<text text-anchor="middle" x="422" y="-86.3" font-family="Times,serif" font-size="14.00">Token Processing</text>
</g>
<!-- nlp&#45;&gt;tp -->
<g id="edge8" class="edge"><title>nlp&#45;&gt;tp</title>
<path fill="none" stroke="black" d="M428.775,-143.697C427.783,-135.983 426.592,-126.712 425.486,-118.112"/>
<polygon fill="black" stroke="black" points="428.946,-117.576 424.199,-108.104 422.003,-118.469 428.946,-117.576"/>
</g>
<!-- rkwp -->
<g id="node9" class="node"><title>rkwp</title>
<ellipse fill="#b2dfee" stroke="#b2dfee" cx="629" cy="-90" rx="115.534" ry="18"/>
<text text-anchor="middle" x="629" y="-86.3" font-family="Times,serif" font-size="14.00">Relative&#45;to&#45;Token Processing</text>
</g>
<!-- nlp&#45;&gt;rkwp -->
<g id="edge9" class="edge"><title>nlp&#45;&gt;rkwp</title>
<path fill="none" stroke="black" d="M475.435,-145.291C504.987,-134.843 543.972,-121.06 575.267,-109.997"/>
<polygon fill="black" stroke="black" points="576.452,-113.29 584.713,-106.657 574.118,-106.69 576.452,-113.29"/>
</g>
<!-- pblog -->
<g id="node10" class="node"><title>pblog</title>
<ellipse fill="#b2dfee" stroke="#b2dfee" cx="850" cy="-90" rx="87.1385" ry="18"/>
<text text-anchor="middle" x="850" y="-86.3" font-family="Times,serif" font-size="14.00">Pre&#45;buffered Logging</text>
</g>
<!-- log&#45;&gt;pblog -->
<g id="edge10" class="edge"><title>log&#45;&gt;pblog</title>
<path fill="none" stroke="black" d="M740.392,-147.834C759.995,-137.67 787.485,-123.415 810.03,-111.725"/>
<polygon fill="black" stroke="black" points="811.767,-114.767 819.034,-107.057 808.545,-108.553 811.767,-114.767"/>
</g>
<!-- kwr -->
<g id="node11" class="node"><title>kwr</title>
<ellipse fill="#b2dfee" stroke="#b2dfee" cx="146" cy="-18" rx="91.9385" ry="18"/>
<text text-anchor="middle" x="146" y="-14.3" font-family="Times,serif" font-size="14.00">Keyword Replacement</text>
</g>
<!-- kwdp&#45;&gt;kwr -->
<g id="edge11" class="edge"><title>kwdp&#45;&gt;kwr</title>
<path fill="none" stroke="black" d="M223.32,-72.5881C209.868,-63.2648 192.839,-51.4624 178.188,-41.3084"/>
<polygon fill="black" stroke="black" points="180.094,-38.3713 169.882,-35.5516 176.107,-44.1246 180.094,-38.3713"/>
</g>
<!-- kwm -->
<g id="node12" class="node"><title>kwm</title>
<ellipse fill="#b2dfee" stroke="#b2dfee" cx="349" cy="-18" rx="91.9385" ry="18"/>
<text text-anchor="middle" x="349" y="-14.3" font-family="Times,serif" font-size="14.00">Keyword Modification</text>
</g>
<!-- kwdp&#45;&gt;kwm -->
<g id="edge12" class="edge"><title>kwdp&#45;&gt;kwm</title>
<path fill="none" stroke="black" d="M270.914,-72.5881C284.5,-63.2648 301.698,-51.4624 316.493,-41.3084"/>
<polygon fill="black" stroke="black" points="318.617,-44.0959 324.882,-35.5516 314.656,-38.3243 318.617,-44.0959"/>
</g>
</g>
</svg>
